<svg version="1.1" id="Layer_1" xmlns="http://www.w3.org/2000/svg" x="0" y="0" viewBox="0 0 513 513" xml:space="preserve"><style>.st1{fill:#6151a2}.st2{fill:none;stroke:#6151a2;stroke-width:10;stroke-linecap:round;stroke-miterlimit:10}</style><circle cx="256.6" cy="256.4" r="245.6" fill="#fff" stroke="#6151a2" stroke-width="20" stroke-miterlimit="10"/><path class="st1" d="M386 116c-54-43-210-50-265 5-42 41-51 184 0 229 30 26 48 28 48 28l1 41c0 10 14 20 27 5l32-35s107 9 157-33 53-196 0-240zm-20 221c-43 36-133 27-133 27l-36 42c-20 21-19 14-19 1l2-52s-15-3-37-18c-47-34-33-167-3-197 46-49 181-42 228-4 46 37 41 165-2 201z"/><path class="st1" d="M190 157c4-1 10-1 13 2l13 16 13 20c1 4 0 10-3 13l-8 7c-3 3-5 9-4 13 0 0 4 18 20 32 16 15 33 18 33 18 4 1 10-1 13-4l5-6c3-3 9-4 12-2l18 10 17 13c3 3 5 9 3 12 0 0-3 7-9 13-6 7-12 10-12 10-4 2-11 2-15 1 0 0-45-16-79-48-37-36-54-86-54-86-1-4 0-10 3-14 0 0 5-8 11-12l10-8z"/><path class="st2" d="M254 154c58 0 83 47 82 85"/><path class="st2" d="M262 176c37 0 53 30 52 54M267 198c18 0 26 15 26 27"/></svg>