<?xml version="1.0" encoding="utf-8"?>
<!-- Generator: Adobe Illustrator 25.2.3, SVG Export Plug-In . SVG Version: 6.00 Build 0)  -->
<svg version="1.1" id="Layer_1" xmlns="http://www.w3.org/2000/svg" xmlns:xlink="http://www.w3.org/1999/xlink" x="0px" y="0px"
	 viewBox="0 0 513 513" style="enable-background:new 0 0 513 513;" xml:space="preserve">
<style type="text/css">
	.st0{fill:#FFFFFF;stroke:#2AB34B;stroke-width:20;stroke-miterlimit:10;}
	.st1{fill:none;stroke:#2AB34B;stroke-width:27.2133;stroke-miterlimit:10;}
	.st2{fill:#2AB34B;stroke:#2AB34B;stroke-miterlimit:10;}
</style>
<g>
	<ellipse class="st0" cx="256.59" cy="256.13" rx="245.1" ry="245.36"/>
	<g>
		<path class="st1" d="M122.48,250.38c0-77.13,62.46-139.66,139.52-139.66s139.52,62.53,139.52,139.66
			c0,77.13-62.46,139.66-139.52,139.66c-26.9,0-52.02-7.62-73.32-20.82l-63.39,18.42l18.05-63.76
			C130.12,302.54,122.48,277.36,122.48,250.38z"/>
		<path class="st2" d="M236.68,217.02c0.75,1.66,0.43,4.19-0.71,5.61l-10.49,13.08c-1.14,1.42-1.6,4-1.03,5.74
			c0,0,4.48,13.45,20.23,26.45c15.75,13,33.65,19.84,33.65,19.84c1.7,0.65,4.12,0.09,5.36-1.24l14.54-15.61
			c1.24-1.33,3.61-1.79,5.26-1l32.97,15.68c1.65,0.78,3.15,2.91,3.35,4.72c0,0,1.85,17.17-16.66,26.85
			c-18.51,9.68-55.82,6.92-94.5-27.66c-38.68-34.58-52.78-73.85-39.24-94.02c13.76-20.5,27.81-15.75,27.81-15.75
			c1.73,0.58,3.75,2.42,4.5,4.09L236.68,217.02z"/>
	</g>
</g>
</svg>
