<svg display="none" xmlns="http://www.w3.org/2000/svg">
  <symbol id="viber-icon" viewBox="0 0 513 513" preserveAspectRatio="xMidYMin meet">
    <style type="text/css">
      .st0_viber {
        fill: #ffffff;
        stroke: #6151a2;
        stroke-width: 20;
        stroke-miterlimit: 10;
      }
      .st1_viber {
        fill: #6151a2;
      }
      .st2_viber {
        fill: none;
        stroke: #6151a2;
        stroke-width: 10;
        stroke-linecap: round;
        stroke-miterlimit: 10;
      }
    </style>
    <g>
      <circle class="st0_viber" cx="256.59" cy="256.39" r="245.62" />
      <g>
        <path
          class="st1_viber"
          d="M385.7,116.32c-53.73-43.5-210.12-50.21-264.81,4.48c-41.58,41.58-50.53,184.21,0,228.99
	c29.79,26.4,48.61,28.14,48.61,28.14s0.64,17.91,0.64,40.94c0,9.78,13.43,19.83,27.07,4.88c7.33-8.03,31.78-34.3,31.78-34.3
	s106.82,8.32,156.71-33.26S439.43,159.82,385.7,116.32z M365.87,336.99c-42.95,35.8-132.4,27.5-132.4,27.5
	s-29.52,34.73-36.01,41.46c-20.18,20.92-18.99,14.19-18.99,0.75c0-19.83,1.28-51.81,1.28-51.81s-14.44-2.51-36.3-18.08
	c-47.35-33.72-33.11-166.45-3.84-197.15c45.96-48.19,181.73-41.3,227.99-3.85C413.85,173.27,408.83,301.2,365.87,336.99z"
        />
        <path
          class="st1_viber"
          d="M190.1,157.41c3.8-1.84,9.51-1.08,12.69,1.7c0,0,5.25,4.58,13.08,15.43c8.35,11.57,12.73,20.88,12.73,20.88
	c1.8,3.82,0.72,9.28-2.39,12.14l-8.2,7.53c-3.11,2.85-4.94,8.57-4.06,12.7c0,0,3.84,18.08,19.83,32.47
	c15.99,14.39,33.1,17.95,33.1,17.95c4.13,0.86,9.86-0.97,12.73-4.07l5.56-6.01c2.87-3.1,8.36-4.21,12.2-2.47
	c0,0,8.64,3.92,17.63,9.95c8.99,6.04,17.36,13.69,17.36,13.69c3.12,2.85,4.25,8.33,2.52,12.18c0,0-2.9,6.47-9.01,12.83
	c-6.11,6.36-12.3,9.4-12.3,9.4c-3.79,1.86-10.17,2.3-14.17,0.97c0,0-45.78-15.19-79.39-47.79c-37.42-36.3-53.59-86.09-53.59-86.09
	c-1.31-4.01-0.33-10.09,2.16-13.49c0,0,5.78-7.9,11.13-12.68C185.09,159.84,190.1,157.41,190.1,157.41z"
        />
        <path class="st2_viber" d="M253.51,153.74c58.32,0,83.9,47.33,82.21,85.71" />
        <path class="st2_viber" d="M262.02,176.16c36.54,0,52.57,29.65,51.5,53.7" />
        <path class="st2_viber" d="M267.26,198.25c18.23,0,26.23,14.8,25.7,26.8" />
      </g>
    </g>
  </symbol>
  <symbol id="whatsapp-icon" viewBox="0 0 513 513" preserveAspectRatio="xMidYMin meet">
    <style type="text/css">
      .st0_whatsapp {
        fill: #ffffff;
        stroke: #2ab34b;
        stroke-width: 20;
        stroke-miterlimit: 10;
      }
      .st1_whatsapp {
        fill: none;
        stroke: #2ab34b;
        stroke-width: 27.2133;
        stroke-miterlimit: 10;
      }
      .st2_whatsapp {
        fill: #2ab34b;
        stroke: #2ab34b;
        stroke-miterlimit: 10;
      }
    </style>
    <g>
      <ellipse class="st0_whatsapp" cx="256.59" cy="256.13" rx="245.1" ry="245.36" />
      <g>
        <path
          class="st1_whatsapp"
          d="M122.48,250.38c0-77.13,62.46-139.66,139.52-139.66s139.52,62.53,139.52,139.66
	c0,77.13-62.46,139.66-139.52,139.66c-26.9,0-52.02-7.62-73.32-20.82l-63.39,18.42l18.05-63.76
	C130.12,302.54,122.48,277.36,122.48,250.38z"
        />
        <path
          class="st2_whatsapp"
          d="M236.68,217.02c0.75,1.66,0.43,4.19-0.71,5.61l-10.49,13.08c-1.14,1.42-1.6,4-1.03,5.74
	c0,0,4.48,13.45,20.23,26.45c15.75,13,33.65,19.84,33.65,19.84c1.7,0.65,4.12,0.09,5.36-1.24l14.54-15.61
	c1.24-1.33,3.61-1.79,5.26-1l32.97,15.68c1.65,0.78,3.15,2.91,3.35,4.72c0,0,1.85,17.17-16.66,26.85
	c-18.51,9.68-55.82,6.92-94.5-27.66c-38.68-34.58-52.78-73.85-39.24-94.02c13.76-20.5,27.81-15.75,27.81-15.75
	c1.73,0.58,3.75,2.42,4.5,4.09L236.68,217.02z"
        />
      </g>
    </g>
  </symbol>
</svg>