<?xml version="1.0" encoding="utf-8"?><svg viewBox="0 0 384 512" xmlns="http://www.w3.org/2000/svg" xmlns:xlink="http://www.w3.org/1999/xlink"><style>:root>svg{display:none}:root>svg:target{display:block}</style><svg aria-hidden="true" viewBox="0 0 256 512" class="asvg-inline--fa afa-angle-right afa-w-8 afa-7x" id="angle-right" xmlns="http://www.w3.org/2000/svg"><path fill="currentColor" d="M224.3 273l-136 136c-9.4 9.4-24.6 9.4-33.9 0l-22.6-22.6c-9.4-9.4-9.4-24.6 0-33.9l96.4-96.4-96.4-96.4c-9.4-9.4-9.4-24.6 0-33.9L54.3 103c9.4-9.4 24.6-9.4 33.9 0l136 136c9.5 9.4 9.5 24.6.1 34z"/></svg><svg aria-hidden="true" data-prefix="fas" data-icon="map-marker-alt" viewBox="0 0 384 512" class="bsvg-inline--fa bfa-map-marker-alt bfa-w-12 bfa-7x" id="location" xmlns="http://www.w3.org/2000/svg"><path fill="currentColor" d="M172.268 501.67C26.97 291.031 0 269.413 0 192 0 85.961 85.961 0 192 0s192 85.961 192 192c0 77.413-26.97 99.031-172.268 309.67-9.535 13.774-29.93 13.773-39.464 0zM192 272c44.183 0 80-35.817 80-80s-35.817-80-80-80-80 35.817-80 80 35.817 80 80 80z"/></svg></svg>