<svg xmlns="http://www.w3.org/2000/svg" xmlns:xlink="http://www.w3.org/1999/xlink"><symbol id="all-icons"><g fill="none"><style>.st5{fill:#dc2825}</style><g id="Layer_3"><path d="M177 207.8H49.8c-14.7 0-26.7-12-26.7-26.7V79.7A26.6 26.6 0 0 1 49.8 53H177c14.7 0 26.7 12 26.7 26.7v101.4a26.6 26.6 0 0 1-26.7 26.7z" style="fill:#fff;stroke:#3caa35;stroke-width:12;stroke-miterlimit:10"/><path d="M384.6 207.8H257.4c-14.7 0-26.7-12-26.7-26.7V79.7c0-14.7 12-26.7 26.7-26.7h127.2c14.7 0 26.7 12 26.7 26.7v101.4a26.6 26.6 0 0 1-26.7 26.7z" style="fill:#fff;stroke:#00aff0;stroke-width:12;stroke-miterlimit:10"/><path d="M597.6 207.8H470.4c-14.7 0-26.7-12-26.7-26.7V79.7c0-14.7 12-26.7 26.7-26.7h127.2c14.7 0 26.7 12 26.7 26.7v101.4a26.6 26.6 0 0 1-26.7 26.7z" style="fill:#fff;stroke:#dc2825;stroke-width:12;stroke-miterlimit:10"/><path d="M384.6 415.3H257.4c-14.7 0-26.7-12-26.7-26.7V287.2c0-14.7 12-26.7 26.7-26.7h127.2c14.7 0 26.7 12 26.7 26.7v101.4a26.6 26.6 0 0 1-26.7 26.7z" style="fill:#fff;stroke:#6046be;stroke-width:12;stroke-miterlimit:10"/><linearGradient id="SVGID_1_" gradientUnits="userSpaceOnUse" x1="-12.4" y1="177.9" x2="154.4" y2="177.9" gradientTransform="rotate(-90 171 237.9)"><stop offset="0" style="stop-color:#0172fe"/><stop offset="1" style="stop-color:#00c6ff"/></linearGradient><path d="M201.3 287.2v101.4c0 14.7-12 26.7-26.7 26.7H47.4c-14.7 0-26.7-12-26.7-26.7V287.2c0-14.7 12-26.7 26.7-26.7h127.2a26.6 26.6 0 0 1 26.7 26.7z" style="fill:#fff;stroke:url(#SVGID_1_);stroke-width:12;stroke-miterlimit:10"/></g><g id="Layer_1"><g><path class="st5" d="M513.3 81.9h-15.7c-3.6 0-6.5 1.3-8.6 3.8a11.4 11.4 0 0 0-3.2 7.9l.2 1.1a90.8 90.8 0 0 0 8.8 32.4 90.7 90.7 0 0 0 19 26.8 95.6 95.6 0 0 0 59.2 27.9c3.5.3 6.5-.7 9-3a11 11 0 0 0 3.8-8.7v-15.9c0-2.9-1-5.5-3-7.8a11.6 11.6 0 0 0-7.3-3.8c-3.5-.4-7-1.1-10.3-2.1-4.6-1.3-8.5-.4-11.8 2.9l-6.3 6.4a72 72 0 0 1-29.2-29.2l6.4-6.4c3.3-3.3 4.3-7.2 2.8-11.7a56 56 0 0 1-2-10.4 11 11 0 0 0-3.8-7.3c-2.3-1.9-5-2.9-8-2.9z" id="Layer14_0_FILL"/></g><g><path d="M353.5 98.2a46.5 46.5 0 0 0-42.4-13.1 29.3 29.3 0 0 0-13.2-3.3A27.5 27.5 0 0 0 272 99.1a28 28 0 0 0 1.4 24.3 44.7 44.7 0 0 0 3 26.6 48.2 48.2 0 0 0 25.2 25.3 46.5 46.5 0 0 0 26.6 3c2.1 1.2 4.4 2.1 6.7 2.6a28.3 28.3 0 0 0 17.8-1.1c3.4-1.4 6.5-3.4 9.1-6.1a28 28 0 0 0 4.6-33.5 45.8 45.8 0 0 0-2.9-27 42 42 0 0 0-10-15m-19 6.3c2.2 1.2 4 2.7 5.3 4.2a8.3 8.3 0 0 1 2.1 5.2c0 1.6-.6 2.9-1.8 3.8a6.8 6.8 0 0 1-4.2 1.3 5 5 0 0 1-3.5-1.3l-1.4-1.3-1.4-1.6a13.1 13.1 0 0 0-4-2.9c-1.9-.9-4.3-1.3-7-1.3-3 0-5.4.6-7.1 1.9a5.7 5.7 0 0 0-2.5 4.9c0 1.7 1 3.2 2.9 4.2a28 28 0 0 0 6.2 2l11.1 2.5c5.5 1.2 9.6 3.4 12.1 6.7 2 2.6 3.1 5.9 3.1 9.7 0 5.4-2 9.7-6 12.9a27.6 27.6 0 0 1-18 5.2c-7.7 0-13.9-1.6-18.5-4.9a15 15 0 0 1-4.4-4.7 9 9 0 0 1-1.4-4.9 5 5 0 0 1 1.6-3.9c1-1 2.4-1.5 4-1.5s2.9.5 4.1 1.6l1.5 1.6 1.5 1.9a15 15 0 0 0 4.1 3.6c2 1.1 4.6 1.6 7.6 1.6 3.3 0 5.9-.8 7.9-2.3 1.9-1.5 2.8-3.2 2.8-5.2a5 5 0 0 0-1.2-3.4c-.9-1.2-2.4-2-4.5-2.5l-14.9-3.8c-5.5-1.4-9.4-3.6-11.7-6.7a14.8 14.8 0 0 1-2.6-9 15 15 0 0 1 7.4-13.5c4.2-2.7 9.4-4 15.8-4a31.1 31.1 0 0 1 15 3.9z" style="fill:#00aff0" id="Layer13_0_FILL"/></g><g><path d="M348 289.3h-.1a128.1 128.1 0 0 0-48.6 0h-.1c-5 1.1-9.8 3.9-14.5 8.4a29.2 29.2 0 0 0-8.8 14v.1c-3 13.7-3 27.3 0 41v.1c1.1 4.7 3.9 9.2 8.2 13.5 4.3 4.3 8.9 7.2 13.8 8.6v10.9c0 2 .9 3.3 2.8 4 1.8.7 3.4.4 4.8-1l11.1-11.5 7.2.2c8.2 0 16.3-.8 24.3-2.3h.1c5-1.1 9.8-3.9 14.5-8.3 4.7-4.5 7.6-9.2 8.8-14.1v-.1c3-13.7 3-27.3 0-41v-.1a29.2 29.2 0 0 0-8.8-14 32.2 32.2 0 0 0-14.7-8.4m-1.9 8.7c3.3.7 6.7 2.7 10.1 6 3.4 3.3 5.5 6.5 6.3 9.7a85.5 85.5 0 0 1 0 37c-.8 3.2-2.9 6.4-6.3 9.7a21.3 21.3 0 0 1-10.1 6c-8.6 1.6-17.2 2.3-25.9 2.1l-.5.2-16.6 17.1c-.3.3-.7.4-1.1.2-.4-.2-.6-.5-.6-1v-18l-.2-.4-.3-.2h-.1a21 21 0 0 1-10-6 22.3 22.3 0 0 1-6.4-9.7 85.5 85.5 0 0 1 0-37c.8-3.2 2.9-6.4 6.4-9.7 3.4-3.3 6.8-5.3 10-6 15.2-2.8 30.3-2.8 45.3 0m-18.2 47.3c-.6.1-1.2 0-1.8-.2l-1.6-.6a23.7 23.7 0 0 1-13.1-14.5c-.4-.9-.3-1.8.2-2.6.2-.3.5-.7 1-1.1l1.4-1a4 4 0 0 0 1.8-2.6c.2-1 0-2-.5-3a61 61 0 0 0-6.3-8.8 2.7 2.7 0 0 0-1.8-1.2c-.7-.2-1.5-.1-2.2.2a14 14 0 0 0-5 3.8c-2 2.4-2.7 4.6-1.9 6.4l1.6 3.8 1.7 3.7a53.7 53.7 0 0 0 20.8 24 90 90 0 0 0 13.2 6.8l1.3.5 1.5.4 1.3-.4 1.3-.5c2.6-1.4 4.5-3.5 6-6.5.4-.8.5-1.5.2-2.2-.2-.7-.6-1.4-1.2-1.9l-4.2-3.1-4.4-3.1c-.8-.5-1.6-.7-2.4-.7-.8 0-1.6.3-2.3.9l-1.9 2.2c-1.2.7-2 1.2-2.7 1.3m-2.3-35.5 2 .2a21 21 0 0 1 11.6 6.2A21 21 0 0 1 345 328l.4 5.2c0 .5.2.9.4 1.2.2.3.6.5 1 .5s.8-.2 1-.5c.3-.3.4-.7.3-1.2l-.2-3.1a23.9 23.9 0 0 0-8.8-17.5 25 25 0 0 0-15.2-5.8h-1.2c-.5 0-.8.2-1.1.5-.3.3-.4.7-.4 1.1.1.5.4.8.9.9l1.4.2 2.1.3m1.4 10c-.4 0-.7.1-1 .3a1 1 0 0 0-.5.9c-.1.4 0 .7.2 1 .2.3.5.5 1 .6l1.1.2 1.1.1a5.1 5.1 0 0 1 3.6 3.9l.3 2c.1.9.6 1.4 1.5 1.5h.1l.7-.2.4-.8v-1.2a8.5 8.5 0 0 0-2.7-6.1 8.7 8.7 0 0 0-5.8-2.2m-2.1-3.9 2 .3a14.6 14.6 0 0 1 7.8 3.6c1 .9 1.8 2 2.5 3.1 1.2 2.1 1.9 4.6 1.9 7.3l.1 1.2c.2.6.6.9 1.3.8.7 0 1.1-.4 1.2-.9l.2-.9-.2-2.9c-.8-5.7-3.8-9.8-8.8-12.4a19.2 19.2 0 0 0-7.9-2.1c-.4 0-.8.1-1 .4-.2.2-.4.5-.4.9s.1.8.3 1.1c.2.3.5.4 1 .5z" style="fill:#6046be" id="Layer12_0_FILL"/></g><g><path d="M111.8 74.9a49.3 49.3 0 0 0-41.8 72l-5.2 25.6c-.1.7 0 1.3.5 1.8s1.1.7 1.8.5l25-5.9a54.2 54.2 0 0 0 21.3 5.1 48.9 48.9 0 0 0 35-13.8 49 49 0 0 0 15.3-34.3 49 49 0 0 0-14.8-37 49.2 49.2 0 0 0-37.1-14m-25 22a38.7 38.7 0 0 1 54.9 0 37.6 37.6 0 0 1 11.3 27.5 38.7 38.7 0 0 1-56.1 34.8l-3.4-1.8-15.3 3.6 3.2-15.7-1.7-3.3a38.5 38.5 0 0 1-1.3-32.6c1.9-4.6 4.7-8.8 8.4-12.5m53.8 40.5a3.4 3.4 0 0 0-2.3-2.2l-9.6-2.8a3 3 0 0 0-1.9 0c-.6.2-1.2.5-1.7.9l-2.3 2.4c-.5.5-1.1.9-1.8 1a5 5 0 0 1-2.1-.1c-2.3-.9-5.3-3.1-9.1-6.4a36.2 36.2 0 0 1-7.5-8.2c-.3-.6-.5-1.2-.4-1.9.1-.7.3-1.3.8-1.9l2.1-2.7c.4-.5.6-1.1.7-1.8a4 4 0 0 0-.2-1.9l-4.1-9.2a3.5 3.5 0 0 0-2.5-2.1c-1.1-.3-2.2 0-3.1.8-1.6 1.4-3 2.8-4 4.2a10.4 10.4 0 0 0-2.2 5.3c-.8 8 3.6 16.5 13.1 25.5a47 47 0 0 0 16.9 10.8c4.4 1.5 8.6 1.8 12.4.9 1.7-.4 3.4-1.4 5-2.9 1.2-1.2 2.4-2.7 3.6-4.6.6-.9.7-2 .2-3.1z" style="fill:#09ba27" id="Layer11_0_FILL"/></g><g><g id="Layer10_0_FILL"><linearGradient id="SVGID_2_" gradientUnits="userSpaceOnUse" x1="113.8" y1="386.1" x2="113.8" y2="286.1"><stop offset="0" style="stop-color:#0172fe"/><stop offset="1" style="stop-color:#00c6ff"/></linearGradient><path d="M113.8 286.1a49.7 49.7 0 0 0-34.9 13.6A48.3 48.3 0 0 0 63.8 334a46 46 0 0 0 16.6 35.7V384c0 .6.2 1.1.7 1.5.4.4.9.6 1.5.6a2 2 0 0 0 1.1-.3l11.6-7.2a51.5 51.5 0 0 0 53.5-10.3 47.8 47.8 0 0 0 15.1-34.3 49.6 49.6 0 0 0-15.1-34.3 49.9 49.9 0 0 0-35-13.6m8.6 45.4 21.7-11.9c.5-.2.9-.3 1.4-.2.5.1.9.4 1.2.8.3.4.5.9.4 1.4 0 .5-.2 1-.6 1.4l-25 25a2 2 0 0 1-1.4.6c-.5 0-1-.1-1.5-.5l-13.5-11.6-21.6 11.8c-.4.2-.8.3-1.3.2-.5-.1-.8-.3-1.2-.6-.4-.4-.7-.9-.7-1.5s.2-1.1.7-1.5l25-25c.4-.4.8-.6 1.3-.6.6 0 1.1.1 1.5.4l13.6 11.8z" style="fill:url(#SVGID_2_)"/></g></g><path d="M523.9 189.4c0-6.3-2.2-11.7-6.7-16.1-4.4-4.5-9.8-6.7-16-6.7s-11.5 2.2-16 6.7a22.1 22.1 0 0 0-6.6 16.1v90.4l-16.4-18.6-.4-.4a21.8 21.8 0 0 0-7.3-4.9 26 26 0 0 0-8.7-1.8h-.1a22.7 22.7 0 0 0-15.9 6.6 20 20 0 0 0-5.9 13.6 32 32 0 0 0 4.8 16.9 745.3 745.3 0 0 0 26.7 42.8c8 12.2 13.4 20.7 16.2 25.5 2.5 4.2 7 13.3 13.6 27.2a6.5 6.5 0 0 0 2.8 3.1c1.3.8 2.6 1.2 4.1 1.2H589c1.6 0 3.1-.5 4.5-1.5s2.3-2.3 2.8-3.9a634 634 0 0 0 9.5-32.2c5.4-20.2 8.2-34.3 8.2-42.4v-52.3c0-6.3-2.2-11.7-6.7-16.1a21.9 21.9 0 0 0-16-6.6c-3.2 0-6.2.6-8.9 1.8a21.4 21.4 0 0 0-8.2-10.3 22.2 22.2 0 0 0-12.9-4.1c-3.5 0-6.8.8-9.9 2.2a23.4 23.4 0 0 0-8.2-8.9 22.4 22.4 0 0 0-19.2-2.2v-25.1" style="fill:#fff"/><path class="st5" d="M596.3 419.9v-15.4H485.8v15.4h110.5M524 189.4c0-6.3-2.2-11.7-6.7-16.1-4.4-4.5-9.8-6.7-16-6.7s-11.5 2.2-16 6.7a22.1 22.1 0 0 0-6.6 16.1v90.4l-16.4-18.6-.4-.4a21.8 21.8 0 0 0-7.3-4.9 26 26 0 0 0-8.7-1.8h-.1a22.7 22.7 0 0 0-15.9 6.6 20 20 0 0 0-5.9 13.6 32 32 0 0 0 4.8 16.9 745.3 745.3 0 0 0 26.7 42.8c8 12.2 13.4 20.7 16.2 25.5 2.5 4.2 7 13.3 13.6 27.2a6.5 6.5 0 0 0 2.8 3.1c1.3.8 2.6 1.2 4.1 1.2H589c1.6 0 3.1-.5 4.5-1.5s2.3-2.3 2.8-3.9a634 634 0 0 0 9.5-32.2c5.4-20.2 8.2-34.3 8.2-42.4v-52.3c0-6.3-2.2-11.7-6.7-16.1a21.9 21.9 0 0 0-16-6.6c-3.2 0-6.2.6-8.9 1.8a21.4 21.4 0 0 0-8.2-10.3 22.2 22.2 0 0 0-12.9-4.1c-3.5 0-6.8.8-9.9 2.2a23.4 23.4 0 0 0-8.2-8.9 22.4 22.4 0 0 0-19.2-2.2v-25.1m-30 0c0-2.1.7-3.8 2.2-5.3s3.1-2.2 5.1-2.2c2 0 3.8.7 5.2 2.2s2.2 3.2 2.2 5.3V261c0 2.1.8 3.9 2.2 5.4a7.3 7.3 0 0 0 5.4 2.2 7.5 7.5 0 0 0 7.7-7.6v-24.9c0-2.1.7-3.8 2.2-5.3a7 7 0 0 1 5.2-2.2c2 0 3.7.7 5.2 2.2a7.1 7.1 0 0 1 2.2 5.3V271c0 2.1.8 3.9 2.2 5.4a7.3 7.3 0 0 0 5.4 2.2c2.1 0 3.9-.8 5.5-2.2a7.3 7.3 0 0 0 2.2-5.4v-24.9c0-2.1.7-3.8 2.2-5.3a6.9 6.9 0 0 1 5.2-2.2c2 0 3.7.7 5.2 2.2a7.5 7.5 0 0 1 2.2 5.3V281c0 2.1.8 3.9 2.3 5.4a7.3 7.3 0 0 0 5.4 2.2c2.1 0 3.9-.8 5.5-2.2a7.3 7.3 0 0 0 2.2-5.4v-22.3c0-2.1.7-3.8 2.2-5.3a7.3 7.3 0 0 1 10.4 0 7.7 7.7 0 0 1 2.2 5.3V311c0 5.6-1.9 15.8-5.6 30.5a684.8 684.8 0 0 1-9.6 34.1h-86.5a440.1 440.1 0 0 0-12-23.9c-3.1-5.3-8.6-14-16.7-26.2l-13-20.1c-5-8-9.4-15.2-13.1-21.8-3.3-5.7-3.7-9.8-1.4-12.1a7 7 0 0 1 5.1-2.1c2 0 3.7.7 5.1 2l29.6 33.8c1 1.2 2.3 2 3.9 2.4a8 8 0 0 0 4.6-.2 6.9 6.9 0 0 0 3.5-2.8 7.4 7.4 0 0 0 1.4-4.3V189.4z"/></g></g></symbol><symbol id="angle-right" viewBox="0 0 256 512"><path fill="#fff" d="M224 273 88 409c-9 9-24 9-34 0l-22-23c-10-9-10-24 0-34l96-96-96-96c-10-10-10-25 0-34l22-23c10-9 25-9 34 0l136 136c10 9 10 25 0 34z"/></symbol><symbol id="call-icon" viewBox="0 0 512.2 512.2"><circle cx="256.3" cy="256.3" r="250" fill="#fff"/><path d="M256 512A256 256 0 0 1 75 75a256 256 0 0 1 362 362 254 254 0 0 1-181 75Zm0-493a237 237 0 1 0 1 474 237 237 0 0 0-1-474Z" fill="#bd2026"/><path d="M75 207c-7-23 3-55 20-70l39-34c6-5 12-8 18-8 10 0 19 8 23 23a383 383 0 0 0 25 61l-38 33c-9 8-10 27-2 41a383 383 0 0 0 86 97 39 39 0 0 0 24 9c7 0 13-2 17-6l38-33a383 383 0 0 0 57 32c22 10 27 28 10 43l-39 34a75 75 0 0 1-47 16 59 59 0 0 1-25-5A383 383 0 0 1 75 207Zm195-72 3-34a150 150 0 0 0-81 14l12 32a116 116 0 0 1 53-13 119 119 0 0 1 13 1Zm131 70a150 150 0 0 0-99-98l-10 32a116 116 0 0 1 76 77Zm-91 67v-15h-31a3 3 0 0 1-3-4v-11a3 3 0 0 1 0-2l30-47a3 3 0 0 1 2-2h23a3 3 0 0 1 3 3v42h6a3 3 0 0 1 3 4v13a3 3 0 0 1-3 4h-6v15a3 3 0 0 1-3 3h-18a3 3 0 0 1-3-3Zm0-36v-13l-1 1-7 12Zm97 14a153 153 0 0 0-1-16l-34 3a120 120 0 0 1 1 13 116 116 0 0 1-21 66l30 17a150 150 0 0 0 25-83Zm-192 25h55a3 3 0 0 0 4-3v-15a3 3 0 0 0-4-3h-20v-1c12-10 22-21 22-36 0-16-12-27-30-27-11 0-21 3-28 8a3 3 0 0 0-1 4l5 13a3 3 0 0 0 2 2 3 3 0 0 0 3 0c5-4 10-6 15-6 6 0 9 3 9 8 0 7-8 16-24 30l-10 9a3 3 0 0 0-1 3v11a3 3 0 0 0 3 3Z" fill="#bd2026"/></symbol><symbol id="fbmess-icon" viewBox="0 0 513.1 513.1"><circle cx="256.6" cy="256.6" r="256.6" fill="#fff"/><path d="M256 0A256 256 0 0 0 75 438 256 256 0 1 0 437 75 254 254 0 0 0 256 0Zm0 493a237 237 0 1 1 1-474 237 237 0 0 1-1 474Z" fill="#34b2dd"/><path d="M256 82c-99 0-179 75-179 167 0 51 25 97 64 128l1 66 62-35a192 192 0 0 0 52 8c99 0 179-75 179-167S355 82 256 82Z" fill="#34b2dd"/><path fill="#fff" d="m236 204-98 103 89-49 46 49 97-103-89 47-45-47z"/></symbol><symbol id="ks-logo" viewBox="0 0 24 24"><g fill="none">
<path fill-rule="evenodd" clip-rule="evenodd" d="M12.0004 0C12.6632 0 13.2004 0.537258 13.2004 1.2V7.97905C13.2004 8.64179 12.6632 9.17905 12.0004 9.17905C11.3377 9.17905 10.8004 8.64179 10.8004 7.97905V1.2C10.8004 0.537258 11.3377 0 12.0004 0ZM23.9411 8.70424C24.1459 9.33454 23.801 10.0115 23.1707 10.2163L16.7234 12.3112C16.0931 12.516 15.4161 12.171 15.2113 11.5407C15.0065 10.9104 15.3515 10.2334 15.9818 10.0286L22.429 7.93379C23.0593 7.72899 23.7363 8.07393 23.9411 8.70424ZM0.0585679 8.70431C0.263366 8.07401 0.940351 7.72907 1.57066 7.93386L8.01791 10.0287C8.64822 10.2335 8.99316 10.9105 8.78836 11.5408C8.58356 12.1711 7.90658 12.516 7.27627 12.3112L0.829015 10.2164C0.198711 10.0116 -0.146231 9.33462 0.0585679 8.70431ZM14.0313 15.3532C14.5675 14.9637 15.3179 15.0825 15.7075 15.6187L19.6921 21.1031C20.0817 21.6392 19.9628 22.3897 19.4266 22.7792C18.8905 23.1688 18.14 23.0499 17.7505 22.5138L13.7659 17.0294C13.3763 16.4932 13.4952 15.7428 14.0313 15.3532ZM9.96949 15.3532C10.5057 15.7428 10.6245 16.4932 10.235 17.0294L6.25035 22.5138C5.8608 23.0499 5.11035 23.1688 4.57419 22.7792C4.03802 22.3897 3.91916 21.6392 4.30871 21.1031L8.29333 15.6187C8.68288 15.0825 9.43332 14.9637 9.96949 15.3532Z" fill="#0087E6"/>
</g></symbol><symbol id="location" viewBox="0 0 384 512"><path fill="#fff" d="M172 502C27 291 0 269 0 192a192 192 0 1 1 384 0c0 77-27 99-172 310a24 24 0 0 1-40 0zm20-230a80 80 0 1 0 0-160 80 80 0 0 0 0 160z"/></symbol><symbol id="logo" viewBox="0 0 215 53"><g fill="none"><path fill-rule="evenodd" clip-rule="evenodd" d="M13.7 6.4c-1 .2-1.2.7-2.2 1.3C8.1 10 8.3 10 5.3 13c-8.9 9-5.8 24.8 3.3 32 2.5 2 5.2 3.4 8.1 4.8 5 2.5 7.6 3.8 13.8 2.5 2.9-.5 3.3-.9 5.5-2 .8-.4 5.4-2 2.9-3.6-1.2-.7-4.4 1.4-5.4 2-2.4 1.2-3.5.1-6.4-.1v-1c1.2 0 4.4.2 5.2-.2 1.4-.7 1.2-2.5-1-2.7l-10.2-.4c-3.3.2-3.4 1.3-7.8-2-10.3-7.5-11-19-4-29.6L12.5 8c.8-.9.8-.4 1.1-1.6Z" fill="#659803"/><path fill-rule="evenodd" clip-rule="evenodd" d="M9.8 4.6c.8 3 1.7 1.8 6.3-.5 2.1-1 3.7 0 6.1.1v1c-2 0-6-.6-6 1.5 0 2 2.6 1.3 4.5 1.5l6.8.3c4 0 4-1 7.1 1 13.8 8.7 12.2 23.2 2.7 34.9l-1.7 2.2c1.3-.4 3.8-2.4 4.8-3.3 3-2.5 2-1.8 4.1-4 8-8.4 5.7-23.5-3.3-31C37.7 5.2 28.6 0 22.6 0c-2.6 0-5 .7-7 1.5-1.7.7-4.6 1.8-5.8 3Z" fill="#FE9603"/><path fill-rule="evenodd" clip-rule="evenodd" d="M20 23.6c2.8.3 2.6 2 2.7 2.4 2.4 12.3-3.8 12-2.7 6.2.5-2.2-1.2-3.2 0-8.6Zm3.3-1c-2.4-1.2-1.2-1.5-1.1-3.9 6.6-.1.2-7.8-1.5-3-.7 2.1.8.5-.8 2-1.4 1.4-2.6 2.3-3.6 3.9-3.4 4.9-2.8 5.4-4 10.5h1.8l-.6 4c.1 1.3-.1 1 3.8 1-.4-1-.5-.8-1.8-1.5 0-.7.3-1.6.5-2.3.5-1.1.2-1 1.6-1.2l1 3.6c.2.5-.1.9 1.3 1.2l6.5.1c-.4-1-.6-.3-1.4-1.4.5-1 .7-2.2.7-3.8 1.6 1.1 1.2 3.3 2.1 5.2h3.6c-.4-1.4-.1-1-1.8-1-1-4-3.6-12.2.4-14.8 1.3.3.7.2 1.5 1.2L33 24c3 2.8 1.4 2.2 3.4 2.2-.4.9-1.8 9.3-1.8 11 1.4-1 1.8-7 2.1-8.9.4-2.3.7-1.6 1.1-2.8-1.4-.8-2.6-1.7-3.8-2.9-2-2-1.4-2.2-2.5-4.5 4.7-1.1 2.2-4.6.3-4.6-1.5 0-1.6 1-2.2 2-1.3 2.4-4.8 1-6.2 7.2ZM52.9 4.6c0 2 2.5.4 2.5 2.5v11.2c0 1.9-.9 2-2.5 2.2 0 2.7-.5 2 7.8 2 1.2 0 1-.8 1-2-4.3-1-3.2-.2-3.2-14.1 4 0 5.7-.5 5.7 3.8 0 3-3.2 2.9-5 2.9v2.4c11.1 0 8.9-8.3 6.9-10.3-2.4-2.4-7.7-1.7-12.1-1.7-.9 0-1.1.3-1.1 1Z" fill="#FEFEFE"/><path d="M78.6 3.2c1.3 0 2.4.3 3.4.7 1 .4 2 1 2.6 1.9.8.8 1.4 1.8 1.8 3a12 12 0 0 1-.1 8c-.4 1-1 2-1.8 3a8 8 0 0 1-6 2.6c-1.2 0-2.3-.2-3.3-.7-1-.4-2-1-2.7-1.8a8.9 8.9 0 0 1-1.7-3 12.3 12.3 0 0 1 0-8c.5-1.1 1.1-2.1 1.9-3a8 8 0 0 1 6-2.7ZM78.5 6c-.6 0-1.2 0-1.8.3l-1.6.8a9.2 9.2 0 0 0-1.5 5.7c0 1.2.2 2.2.4 3 .3 1 .7 1.6 1.2 2.2a4.5 4.5 0 0 0 3.5 1.7l1.8-.3c.6-.2 1.1-.5 1.6-.9.4-.7.8-1.5 1-2.4a12.4 12.4 0 0 0 0-6.3c-.3-.9-.7-1.6-1.1-2.2-.5-.5-1-1-1.7-1.2-.6-.3-1.2-.4-1.8-.4ZM94.7 3.6h11.6v1.6L104 6.4l-.2.5v12.6l2.6-.2.3.3-.4 6.7H104l-.4-4-.3-.3H91.9l-.3.4-.3 4H89l-.6-5.7v-1.3h.8c.3 0 .6 0 .8-.2l.7-.5c.7-.8 1.3-1.9 1.6-3.3.4-1.4.6-3.2.7-5.2l.1-3.8-.3-.4-2.7-.6.2-2 4.5.2Zm1.5 2.5-.3.3-.1 3.6c-.2 4.4-1 7.5-2.2 9.4l6.7.2.3-.3v-13L96.2 6ZM117 3.6v1.6l-2.2 1.1-.2.5V10l-.2 5h.3l7.3-8.3v-.6l-.3-.4-2.7-.3.2-1.9h8.6v1.6l-2.2 1.2-.3.4v12.5l.3.4 2.3.5-.2 1.8h-8.2v-1.5l2.2-1.2.3-.5v-3.7l.1-4.6h-.2l-7.3 8.3v.6l.3.4 2.6.3-.1 1.9h-8.7v-1.5l2.2-1.3.3-.4V6.3l-.3-.4-2.1-.4.1-1.9h8.1ZM138.5 3.6v1.6l-2.2 1.1-.3.5v4.7l7.4-.2v-5l-.3-.5-2.6-.3.2-1.9h8.4v1.6L147 6.4l-.3.4v12.5l.3.4 2.2.5-.1 1.8h-8.2v-1.5l2.2-1.3.3-.4V14L136 14v5.5l.3.4 2.6.3-.1 1.9h-8.6v-1.5l2.2-1.3.3-.4V6.3l-.3-.4-2.2-.4.2-1.9h8.1ZM160 3.6v1.6l-2.3 1.1-.3.5v4.7l7.4-.2v-5l-.3-.5-2.6-.3.2-1.9h8.4v1.6l-2.1 1.2-.3.4v12.5l.3.4 2.2.5-.1 1.8h-8.2v-1.5l2.2-1.3.3-.4V14l-7.4-.1v5.5l.3.4 2.6.3-.1 1.9h-8.6v-1.5l2.2-1.3.3-.4V6.3l-.3-.4-2.2-.4.2-1.9h8.1ZM181.4 3.6l6.1-.2.3.4-.8 6-2.3-.2-.1-3.6h-2.3l-3.2.2-.3.4v4.8h2l2.4-.3.3.3-.3 2.5-4.4-.2v5.7l4.6.2h1.4l1-4.7 2.3.2-.5 7-4.2-.1H173v-1.5l2.4-1.3.2-.4V6.3l-.3-.4-2.2-.4.2-1.9h8.2ZM57 29.6h4l5.7-.2.4.4-.8 6.8-2.3-.1-.2-4.3h-3.3v13.1l.3.4 3.1.4-.1 1.9H53.7v-1.5l3.2-1.3.3-.4V32.3l-2.2-.1h-.9l-1 4.4-2.2-.2.4-7 5.8.2ZM77.5 29.6l6.1-.2.3.4-.9 6-2.2-.2-.2-3.6h-2.2l-3.2.2-.3.4v4.8h2l2.4-.3.3.3-.3 2.5-4.4-.2v5.7l4.5.2H81l1-4.7 2.2.2-.4 7-4.2-.1H69v-1.5l2.3-1.3.3-.4V32.3l-.3-.4-2.2-.4.2-1.9h8.2ZM105 29.6v1.6l-2.1 1.2-.3.4v12.5l.3.4 2.3.5-.2 1.8h-8v-1.5l2-1.3.3-.4V32.2l-6.6-.1-.3.3v13l.3.4 2.5.3L95 48h-8.4v-1.5l2.2-1.3.3-.4V32.3l-.3-.4-2.2-.4.2-1.9H105ZM114 29.6h11.4v1.6l-2.3 1.2-.2.5v12.4l.3.4 2.3.5-.1 1.8h-9v-1.6l3-1.2.2-.4V32.2l-4.2-.1-.3.3-.2 3.6c0 2.5-.3 4.6-.7 6.3-.4 1.6-.9 3-1.5 4-.4.6-1 1.1-1.6 1.5-.7.3-1.4.5-2.3.5l-1.3-.1c-.4 0-.8-.2-1.1-.3l.7-3.2 1.4.2c.7 0 1.3-.2 1.9-.6a28.4 28.4 0 0 0 1.8-8.1v-3.8l-.2-.4-2.7-.5.2-2 4.4.1ZM135.7 29.2c1.2 0 2.4.3 3.4.7 1 .4 1.9 1 2.6 1.9.8.8 1.3 1.8 1.7 3a12 12 0 0 1 0 8c-.5 1-1 2-1.8 3a8 8 0 0 1-6 2.6c-1.2 0-2.3-.2-3.4-.7-1-.4-1.9-1-2.6-1.8a8.9 8.9 0 0 1-1.7-3 12.3 12.3 0 0 1 0-8c.5-1.1 1.1-2.1 1.9-3a8 8 0 0 1 5.9-2.7Zm-.2 2.8c-.6 0-1.2 0-1.8.3l-1.5.8a9.2 9.2 0 0 0-1.5 5.7c0 1.2.1 2.2.4 3 .3 1 .7 1.6 1.2 2.2a4.5 4.5 0 0 0 3.5 1.7l1.8-.3c.6-.2 1-.5 1.5-.9.5-.7.9-1.5 1.1-2.4a12.4 12.4 0 0 0 0-6.3c-.3-.9-.7-1.6-1.1-2.2-.5-.5-1-1-1.7-1.2-.6-.3-1.2-.4-1.9-.4ZM153.3 30v7h-1.7v-5.7h-3.1V37h-1.6v-7h6.3ZM158 30c.6 0 1.2.1 1.6.3.5.2.8.5 1 .9.3.4.5.8.5 1.3 0 .6-.2 1-.4 1.4-.3.4-.6.7-1 .9a4 4 0 0 1-1.7.3h-1.4V37H155v-7h3Zm0 3.7c.4 0 .8 0 1-.3.3-.2.4-.5.4-.9s-.1-.7-.4-.9c-.2-.2-.6-.3-1-.3h-1.4v2.4h1.3ZM162.1 30h1.6v4.6l3.4-4.6h1.5v7H167v-4.6l-3.3 4.6H162v-7ZM175.2 33.3l1 .7c.2.3.3.6.3 1 0 .6-.2 1.1-.7 1.5-.5.3-1.1.5-2 .5h-3.5v-7h3.3c.8 0 1.4.2 1.9.5.4.3.7.7.7 1.3 0 .4-.1.7-.3 1l-.7.5Zm-3.3-.4h1.6c.3 0 .6 0 .8-.2l.2-.7c0-.2 0-.4-.3-.6l-.7-.2h-1.6v1.7Zm1.8 2.9c.8 0 1.2-.3 1.2-.9 0-.6-.4-.9-1.2-.9H172v1.8h1.8ZM182.5 35.5h-3.2l-.6 1.5H177l3.1-7h1.6l3.1 7h-1.7l-.6-1.5Zm-.5-1.2-1-2.7-1.2 2.7h2.2ZM190.8 31.3h-2.3V37H187v-5.7h-2.2V30h6v1.3ZM198.2 30v7h-1.6v-2.9h-3.2V37h-1.6v-7h1.6v2.8h3.2V30h1.6ZM200 30h1.6v4.6l3.3-4.6h1.5v7h-1.6v-4.6l-3.3 4.6H200v-7ZM208.2 30h1.6v4.6L213 30h1.5v7H213v-4.6l-3.3 4.6h-1.5v-7Zm3.2-.5c-1.3 0-2-.5-2-1.5h1.2c0 .5.3.7.8.7l.6-.1c.2-.2.2-.3.2-.6h1.1c0 .5-.1.9-.4 1.2-.4.2-.8.3-1.5.3ZM153.3 42v7h-1.7v-5.7h-3.1V49h-1.6v-7h6.3ZM159.7 47.5h-3.2l-.6 1.5h-1.7l3.1-7h1.6l3.1 7h-1.7l-.6-1.5Zm-.5-1.2-1-2.7-1.2 2.7h2.2ZM169.4 42v7h-1.6v-2.9h-3.2V49H163v-7h1.6v2.8h3.2V42h1.6ZM174.5 49.1a4 4 0 0 1-2-.4 3.6 3.6 0 0 1-1.8-3.2c0-.7.1-1.3.5-1.9.3-.5.7-1 1.3-1.3a4 4 0 0 1 2-.4 4 4 0 0 1 1.6.3c.5.2 1 .5 1.2 1l-1 .9c-.5-.6-1-.8-1.8-.8-.4 0-.8 0-1.1.2a2 2 0 0 0-.8.8l-.3 1.2.3 1.2c.2.3.4.6.8.8l1.1.2c.7 0 1.3-.2 1.8-.8l1 1c-.3.4-.7.7-1.2.9-.5.2-1 .3-1.6.3ZM178.4 42h1.6v7h-1.6v-7ZM185 49.1c-.6 0-1.3-.1-1.9-.5-.6-.3-1-.7-1.3-1.2-.4-.6-.5-1.2-.5-1.9a3.5 3.5 0 0 1 1.8-3.2c.6-.3 1.3-.4 2-.4a4 4 0 0 1 2 .4 3.5 3.5 0 0 1 1.8 3.2 3.5 3.5 0 0 1-1.8 3.1 4 4 0 0 1-2 .5Zm0-1.4c.5 0 .9 0 1.2-.2l.8-.8.3-1.2-.3-1.2a2 2 0 0 0-.8-.8l-1.1-.2a2.2 2.2 0 0 0-2 1l-.2 1.2.3 1.2a2.1 2.1 0 0 0 1.9 1ZM196.6 42v7H195v-2.9h-3.2V49h-1.6v-7h1.6v2.8h3.2V42h1.6ZM203 47.5h-3.2l-.6 1.5h-1.6l3-7h1.7l3.1 7h-1.7l-.6-1.5Zm-.4-1.2-1.1-2.7-1.1 2.7h2.2ZM211.3 43.3h-2.2V49h-1.6v-5.7h-2.2V42h6v1.3Z" fill="#fff"/></g></symbol><symbol id="viber-icon" viewBox="0 0 532 532"><circle cx="266" cy="266" r="256" fill="#fff" stroke="#6151a2" stroke-miterlimit="10" stroke-width="20"/><path d="M401 120c-56-45-219-52-276 5-44 43-53 192 0 238 31 28 50 30 50 30l1 42c0 11 14 21 28 5l33-35s112 8 164-35 56-205 0-250Zm-21 230c-45 37-138 29-138 29l-38 43c-21 22-19 15-19 1l1-54s-15-3-38-19c-49-35-34-174-4-206 48-50 189-43 238-4s43 173-2 210Z" fill="#6151a2"/><path d="M197 163a13 13 0 0 1 13 2s5 4 14 16a151 151 0 0 1 13 21 12 12 0 0 1-3 13l-8 8a16 16 0 0 0-4 13 70 70 0 0 0 20 34 82 82 0 0 0 35 19 16 16 0 0 0 13-5l6-6a12 12 0 0 1 12-2 143 143 0 0 1 19 10 178 178 0 0 1 18 14 12 12 0 0 1 3 13 53 53 0 0 1-10 13 52 52 0 0 1-13 10 23 23 0 0 1-14 1s-48-16-83-50c-39-38-56-89-56-89a18 18 0 0 1 2-14s6-9 12-14a53 53 0 0 1 11-7Z" fill="#6151a2"/><path d="M263 159c61 0 87 49 85 89" fill="none" stroke="#6151a2" stroke-linecap="round" stroke-miterlimit="10" stroke-width="10"/><path d="M272 182c38 0 54 31 53 56m-48-33c19 0 27 16 27 28" fill="none" stroke="#6151a2" stroke-linecap="round" stroke-miterlimit="10" stroke-width="10"/></symbol><symbol id="vodafone-logo" viewBox="0 0 311.81 311.81">
    <circle fill="#E60000" stroke="none" cx="155.91" cy="155.91" r="155.91"/>
    <path stroke="none" fill="#ffffff" d="M157.13,242.31c-42.57.14-86.87-36.19-87.06-94.54C69.95,109.18,90.76,72,117.37,50c26-21.49,61.51-35.28,93.76-35.39,4.15,0,8.49.33,11.15,1.23-28.2,5.85-50.64,32.09-50.54,61.86a16.16,16.16,0,0,0,.19,2.52c47.18,11.49,68.6,40,68.73,79.35S209.69,242.13,157.13,242.31Z"/>
</symbol><symbol id="whatsapp-icon" viewBox="0 0 532 532"><circle cx="266" cy="266" r="256" fill="#fff" stroke="#2ab34b" stroke-miterlimit="10" stroke-width="20"/><path d="M126 260a146 146 0 1 1 69 124l-66 19 19-66a145 145 0 0 1-22-77Z" fill="none" stroke="#2ab34b" stroke-miterlimit="10" stroke-width="27.2"/><path d="M245 225a6 6 0 0 1-1 6l-11 14a7 7 0 0 0-1 6s5 14 22 27a142 142 0 0 0 35 21 6 6 0 0 0 5-1l15-17a5 5 0 0 1 6-1l34 17a7 7 0 0 1 4 5s2 18-18 28-58 7-98-29-55-77-41-98c14-22 29-17 29-17a9 9 0 0 1 4 5Z" fill="#2ab34b" stroke="#2ab34b" stroke-miterlimit="10"/></symbol></svg>