<?xml version="1.0" encoding="utf-8"?>
<!-- Generator: Adobe Illustrator 25.2.3, SVG Export Plug-In . SVG Version: 6.00 Build 0)  -->
<svg version="1.1" xmlns="http://www.w3.org/2000/svg" xmlns:xlink="http://www.w3.org/1999/xlink" x="0px" y="0px"
	 viewBox="0 0 513 513" style="enable-background:new 0 0 513 513;" xml:space="preserve">
<style type="text/css">
	.st0{fill:#FFFFFF;}
	.st1{fill:#BD2026;}
</style>
<g id="Layer_2">
	<circle class="st0" cx="256.7" cy="256.85" r="250"/>
</g>
<g id="Layer_1">
	<path class="st1" d="M256.5,512.74c-68.41,0-132.72-26.64-181.09-75.01C27.04,389.37,0.41,325.05,0.41,256.65
		c0-68.41,26.64-132.72,75.01-181.09C123.78,27.19,188.09,0.56,256.5,0.56s132.72,26.64,181.09,75.01
		c48.37,48.37,75.01,112.68,75.01,181.09c0,68.4-26.64,132.72-75.01,181.09C389.22,486.11,324.91,512.74,256.5,512.74z M256.5,19.81
		c-130.59,0-236.84,106.25-236.84,236.84c0,130.59,106.25,236.84,236.84,236.84s236.84-106.24,236.84-236.84
		C493.34,126.06,387.09,19.81,256.5,19.81z"/>
	<path class="st1" d="M75.5,207.59c-7.29-23,3.1-54.85,20.12-69.91c12.87-11.37,25.73-22.75,38.59-34.12
		c6.06-5.36,12.15-7.89,17.8-7.89c10.28,0,19.13,8.35,23.83,23.19c6.58,20.9,14.88,41.04,24.77,60.25
		c-12.74,11.28-25.49,22.54-38.24,33.81c-9.08,8.04-10.42,26.65-1.68,40.74c22.86,36.94,51.87,69.74,85.73,96.96
		c7.2,5.81,16.19,8.67,24.31,8.67c6.43,0,12.31-1.8,16.32-5.35c12.75-11.27,25.5-22.54,38.24-33.81
		c17.86,12.17,36.83,22.88,56.77,31.96c21.94,10.04,27.18,28.09,10.09,43.19c-12.87,11.38-25.73,22.76-38.6,34.13
		c-11.39,10.07-29.86,16.26-47.41,16.26c-8.7,0-17.16-1.52-24.43-4.85C183.07,395.87,108.02,311,75.5,207.59z M270.25,135.18
		l3.65-33.96c-5.34-0.57-10.79-0.86-16.2-0.86c-22.81,0-44.99,5.22-65.05,14.89c3.48,10.88,7.51,21.62,12.01,32.15
		c16.22-8.36,34.36-12.88,53.04-12.88C261.89,134.51,266.11,134.74,270.25,135.18z M400.96,205.97
		c-14.59-47.21-51.46-84.17-98.65-98.87l-10.15,32.61c36.43,11.34,64.91,39.88,76.17,76.33L400.96,205.97z M310.41,272.41v-15.05
		h-30.89c-1.89,0-3.42-1.53-3.42-3.42v-11.79c0-0.64,0.18-1.26,0.51-1.8l29.31-47.18c0.62-1,1.72-1.61,2.9-1.61h22.15
		c1.89,0,3.42,1.53,3.42,3.42v41.97h5.87c1.89,0,3.42,1.53,3.42,3.42v13.58c0,1.89-1.53,3.42-3.42,3.42h-5.87v15.05
		c0,1.89-1.53,3.42-3.42,3.42h-17.16C311.94,275.83,310.41,274.3,310.41,272.41z M310.41,236.95v-13.24
		c-0.2,0.37-0.39,0.75-0.59,1.12l-7.43,12.12H310.41z M407.62,250.27c0-5.29-0.28-10.63-0.83-15.87l-33.97,3.58
		c0.43,4.05,0.64,8.19,0.64,12.29c0,24.17-7.56,47.4-21.23,66.75c9.82,5.91,19.93,11.36,30.26,16.32
		C398.71,308.97,407.62,280.17,407.62,250.27z M215.64,275.83h54.91c1.89,0,3.42-1.53,3.42-3.42v-14.89c0-1.89-1.53-3.42-3.42-3.42
		H250.5l0.28-0.23c11.3-10.08,21.75-21.41,21.75-35.91c0-16.84-12-27.71-30.57-27.71c-10.13,0-20.12,3.16-27.43,8.67
		c-1.22,0.93-1.68,2.56-1.12,3.98l5.12,12.99c0.39,0.99,1.23,1.75,2.26,2.04c1.03,0.28,2.14,0.07,2.99-0.58
		c4.97-3.81,9.85-5.74,14.48-5.74c6.19,0,9.33,2.66,9.33,7.82c-0.19,7.61-7.97,15.87-24.25,30.44l-10,9.05
		c-0.72,0.65-1.12,1.57-1.12,2.53v10.96C212.22,274.3,213.75,275.83,215.64,275.83z"/>
</g>
</svg>
