<svg xmlns="http://www.w3.org/2000/svg" xmlns:xlink="http://www.w3.org/1999/xlink" viewBox="0 0 532 532"><defs><linearGradient id="a" x1="266.05" y1="531.98" x2="266.05" y2="-0.02" gradientUnits="userSpaceOnUse"><stop offset="0" stop-color="#426fb6"/><stop offset="1" stop-color="#37c2f2"/></linearGradient><linearGradient id="b" x1="266.05" y1="459.31" x2="266.05" y2="84.64" xlink:href="#a"/></defs><circle cx="266.05" cy="265.98" r="256" transform="translate(-110.2 266.05) rotate(-45)" style="fill:#fff"/><path d="M266.05,532A266,266,0,0,1,78,77.89,266,266,0,1,1,454.14,454.07,264.24,264.24,0,0,1,266.05,532Zm0-512c-135.64,0-246,110.35-246,246s110.36,246,246,246,246-110.36,246-246S401.7,20,266.05,20Z" transform="translate(-0.05 0.02)" style="fill:url(#a)"/><path d="M452.12,257.9c0,95.68-83.3,173.25-186.07,173.25A198.82,198.82,0,0,1,212,423.72l-64.28,35.59L147,391.05c-40.95-31.78-67-79.63-67-133.15,0-95.69,83.3-173.26,186.06-173.26S452.12,162.21,452.12,257.9Z" transform="translate(-0.05 0.02)" style="fill:url(#b)"/><polygon points="143.54 318.2 245.12 210.93 292.11 260.29 384.67 210.93 283.09 318.2 235.62 267.41 143.54 318.2" style="fill:#fff"/></svg>