<svg xmlns="http://www.w3.org/2000/svg" viewBox="0 0 512.19 512.19"><path d="M256,.46A256.09,256.09,0,0,0,74.89,437.64,256.09,256.09,0,1,0,437.06,75.47,254.41,254.41,0,0,0,256,.46Zm0,492.93c-130.6,0-236.84-106.24-236.84-236.83S125.38,19.72,256,19.72,492.82,126,492.82,256.56,386.57,493.39,256,493.39Z" transform="translate(0.12 -0.46)" fill="#34b2dd"/><path d="M256,82C157,82,76.84,156.65,76.84,248.77c0,51.53,25.09,97.6,64.52,128.2l.68,65.72,61.88-34.27A191.5,191.5,0,0,0,256,415.57c98.93,0,179.14-74.67,179.14-166.8S354.91,82,256,82Z" transform="translate(0.12 -0.46)" fill="#34b2dd"/><polygon points="235.99 203.07 138.19 306.35 226.85 257.45 272.55 306.35 370.34 203.07 281.23 250.6 235.99 203.07" fill="#fff"/></svg>