<?xml version="1.0" encoding="UTF-8"?>
<svg width="399pt" height="399pt" version="1.1" viewBox="0 0 140.76 140.76" xmlns="http://www.w3.org/2000/svg" xmlns:xlink="http://www.w3.org/1999/xlink">
 <defs>
  <linearGradient id="b" x1="356" x2="356" y1="627" y2="95" gradientUnits="userSpaceOnUse">
   <stop stop-color="#0172fe" offset="0"/>
   <stop stop-color="#00c6ff" offset="1"/>
  </linearGradient>
  <linearGradient id="c" x1="356" x2="356" y1="554.33" y2="179.67" gradientTransform="matrix(.26458 0 0 .26458 -23.812 -25.135)" xlink:href="#b"/>
  <linearGradient id="linearGradient296" x1="356" x2="356" y1="627" y2="95" gradientTransform="matrix(.26458 0 0 .26458 -23.812 -25.135)" gradientUnits="userSpaceOnUse" xlink:href="#b"/>
 </defs>
 <circle transform="rotate(-45)" cx="-6.5115e-6" cy="99.529" r="67.733" fill="#fff" style="stroke-width:.26458"/>
 <path d="m70.379 140.76a70.379 70.379 0 1 1 49.766-20.614 69.919 69.919 0 0 1-49.766 20.614zm0-135.47c-35.891 0-65.088 29.199-65.088 65.087 0 35.888 29.197 65.087 65.088 65.087 35.891 0 65.088-29.197 65.088-65.087 0-35.891-29.199-65.087-65.088-65.087z" fill="url(#b)" style="fill:url(#linearGradient296);stroke-width:.26459"/>
 <path d="m119.61 68.241c0 25.315-22.043 45.839-49.231 45.839a52.607 52.607 0 0 1-14.306-1.9658l-17.007 9.4165-0.18786-18.06c-10.835-8.4085-17.727-21.069-17.727-35.229 0-25.318 22.042-45.839 49.231-45.839 27.189 0 49.229 20.521 49.229 45.839z" fill="url(#c)" style="fill:url(#c);stroke-width:.26459"/>
 <polygon transform="matrix(.26458 0 0 .26458 -23.812 -25.135)" points="382.11 355.29 474.67 305.93 373.09 413.2 325.62 362.41 233.54 413.2 335.12 305.93" fill="#fff"/>
</svg>
