<svg id="Layer_1" data-name="Layer 1" xmlns="http://www.w3.org/2000/svg" xmlns:xlink="http://www.w3.org/1999/xlink" viewBox="0 0 512.19 512.19"><defs><linearGradient id="linear-gradient" x1="255.98" y1="512.65" x2="255.98" y2="0.46" gradientUnits="userSpaceOnUse"><stop offset="0" stop-color="#426fb6"/><stop offset="1" stop-color="#37c2f2"/></linearGradient><linearGradient id="linear-gradient-2" x1="255.98" y1="442.69" x2="255.98" y2="81.97" xlink:href="#linear-gradient"/></defs><circle cx="255.98" cy="256.56" r="246.47" transform="translate(-106.32 255.69) rotate(-45)" style="fill:#fff"/><path d="M256,512.65A256.09,256.09,0,0,1,74.89,75.47,256.09,256.09,0,1,1,437.06,437.64,254.41,254.41,0,0,1,256,512.65Zm0-492.93C125.38,19.72,19.14,126,19.14,256.56S125.38,493.39,256,493.39,492.82,387.15,492.82,256.56,386.57,19.72,256,19.72Z" transform="translate(0.12 -0.46)" style="fill:url(#linear-gradient)"/><path d="M435.12,248.77c0,92.13-80.21,166.8-179.14,166.8a191.5,191.5,0,0,1-52.06-7.15L142,442.69,141.36,377c-39.43-30.6-64.52-76.67-64.52-128.2C76.84,156.65,157,82,256,82S435.12,156.65,435.12,248.77Z" transform="translate(0.12 -0.46)" style="fill:url(#linear-gradient-2)"/><polygon points="138.19 306.35 235.99 203.07 281.23 250.6 370.34 203.07 272.55 306.35 226.85 257.45 138.19 306.35" style="fill:#fff"/></svg>